<svg width="715" height="479" viewBox="0 0 715 479" fill="none" xmlns="http://www.w3.org/2000/svg">
<rect width="715" height="479" fill="#2A2C34"/>
<path d="M319.48 165H449C451.209 165 453 166.791 453 169V256.246C453 258.455 451.209 260.246 449 260.246H319.48C317.271 260.246 315.48 258.455 315.48 256.246V169C315.48 166.791 317.271 165 319.48 165Z" fill="#858A8F" fill-opacity="0.9" stroke="white" stroke-width="8"/>
<path fill-rule="evenodd" clip-rule="evenodd" d="M304.164 187.015H291.156C287.564 187.015 284.653 189.926 284.653 193.518V283.757C284.653 287.349 287.564 290.26 291.156 290.26H423.669C427.261 290.26 430.172 287.349 430.172 283.757V269.937H423.669V283.757H291.156V193.518H304.164V187.015Z" fill="white"/>
<path fill-rule="evenodd" clip-rule="evenodd" d="M275.71 214.655H264.504C260.912 214.655 258 217.567 258 221.159V311.397C258 314.989 260.912 317.901 264.504 317.901H397.016C400.608 317.901 403.52 314.989 403.52 311.397V297.577H397.016V311.397H264.504V221.159H275.71V214.655Z" fill="white"/>
</svg>
