<svg width="58" height="18" viewBox="0 0 58 18" fill="none" xmlns="http://www.w3.org/2000/svg">
<g clip-path="url(#clip0)">
<path d="M13.9129 1.64606L6.0097 8.76292L0 0H13.2817C13.4723 0.000868094 13.6582 0.0592997 13.815 0.167635C13.9718 0.275971 14.0922 0.429155 14.1604 0.607108C14.2287 0.785061 14.2415 0.979478 14.1974 1.16487C14.1532 1.35027 14.054 1.518 13.9129 1.64606Z" fill="url(#paint0_linear)"/>
<path style="mix-blend-mode:multiply" d="M11.5476 1.64606C11.6886 1.51812 11.7877 1.35058 11.832 1.16538C11.8762 0.980182 11.8635 0.785941 11.7955 0.608077C11.7276 0.430213 11.6075 0.277011 11.451 0.168516C11.2945 0.0600205 11.1089 0.00128687 10.9185 0L0 0L5.10594 7.44607L11.5476 1.64606Z" fill="url(#paint1_linear)"/>
<path d="M24.3784 0L12.1892 17.7733L9.91825 14.4686C9.37044 13.6671 9.09506 12.7106 9.13282 11.7405C9.17058 10.7704 9.51948 9.83815 10.1279 9.08165L17.3874 0H24.3784Z" fill="url(#paint2_linear)"/>
<path style="mix-blend-mode:multiply" d="M17.3875 0L10.1175 9.07536C9.50917 9.83355 9.16128 10.7676 9.1254 11.739C9.08952 12.7104 9.36756 13.6676 9.91832 14.4686L12.1893 17.7733C9.77783 11.2792 17.3875 0 17.3875 0Z" fill="url(#paint3_linear)"/>
</g>
<path d="M24.054 6.22C24.018 6.136 24 6.052 24 5.968C24 5.88 24.016 5.798 24.048 5.722C24.084 5.646 24.132 5.578 24.192 5.518C24.256 5.454 24.33 5.406 24.414 5.374C24.498 5.342 24.578 5.326 24.654 5.326C24.782 5.326 24.898 5.36 25.002 5.428C25.11 5.496 25.192 5.594 25.248 5.722L27.396 10.732L29.538 5.722C29.59 5.598 29.67 5.502 29.778 5.434C29.886 5.362 30.004 5.326 30.132 5.326C30.208 5.326 30.288 5.342 30.372 5.374C30.456 5.406 30.528 5.452 30.588 5.512C30.648 5.572 30.694 5.64 30.726 5.716C30.758 5.792 30.774 5.874 30.774 5.962C30.778 6.046 30.762 6.13 30.726 6.214L27.99 12.598C27.934 12.726 27.85 12.826 27.738 12.898C27.63 12.966 27.512 13 27.384 13C27.348 13 27.32 12.998 27.3 12.994C27.296 12.994 27.292 12.994 27.288 12.994C27.284 12.99 27.278 12.988 27.27 12.988L27.21 12.97C27.118 12.946 27.036 12.904 26.964 12.844C26.892 12.78 26.834 12.698 26.79 12.598L24.054 6.22ZM32.8132 12.358C32.8132 12.446 32.7952 12.53 32.7592 12.61C32.7272 12.69 32.6812 12.758 32.6212 12.814C32.5612 12.87 32.4912 12.916 32.4112 12.952C32.3352 12.984 32.2512 13 32.1592 13C32.0712 13 31.9872 12.984 31.9072 12.952C31.8272 12.916 31.7572 12.87 31.6972 12.814C31.6412 12.758 31.5952 12.69 31.5592 12.61C31.5272 12.53 31.5112 12.446 31.5112 12.358V5.962C31.5112 5.87 31.5272 5.786 31.5592 5.71C31.5952 5.63 31.6412 5.562 31.6972 5.506C31.7572 5.446 31.8272 5.4 31.9072 5.368C31.9872 5.336 32.0712 5.32 32.1592 5.32C32.2512 5.32 32.3352 5.336 32.4112 5.368C32.4912 5.4 32.5612 5.446 32.6212 5.506C32.6812 5.562 32.7272 5.63 32.7592 5.71C32.7952 5.786 32.8132 5.87 32.8132 5.962V12.358ZM35.5553 7.696V12.358C35.5553 12.446 35.5373 12.53 35.5013 12.61C35.4693 12.69 35.4233 12.758 35.3633 12.814C35.3033 12.87 35.2333 12.916 35.1533 12.952C35.0773 12.984 34.9933 13 34.9013 13C34.8133 13 34.7293 12.984 34.6493 12.952C34.5693 12.916 34.4993 12.87 34.4393 12.814C34.3833 12.758 34.3373 12.69 34.3013 12.61C34.2693 12.53 34.2533 12.446 34.2533 12.358V5.962C34.2533 5.87 34.2693 5.786 34.3013 5.71C34.3373 5.63 34.3853 5.562 34.4453 5.506C34.5053 5.446 34.5753 5.4 34.6553 5.368C34.7353 5.336 34.8193 5.32 34.9073 5.32C35.0793 5.32 35.2333 5.382 35.3693 5.506L37.9673 8.59L40.5533 5.506C40.6093 5.454 40.6773 5.41 40.7573 5.374C40.8413 5.338 40.9213 5.32 40.9973 5.32H41.0453C41.1333 5.324 41.2153 5.344 41.2913 5.38C41.3673 5.416 41.4333 5.462 41.4893 5.518C41.5493 5.574 41.5953 5.64 41.6273 5.716C41.6593 5.792 41.6753 5.874 41.6753 5.962V12.358C41.6753 12.446 41.6573 12.53 41.6213 12.61C41.5893 12.69 41.5433 12.758 41.4833 12.814C41.4233 12.87 41.3533 12.916 41.2733 12.952C41.1973 12.984 41.1133 13 41.0213 13C40.9333 13 40.8493 12.984 40.7693 12.952C40.6933 12.916 40.6253 12.87 40.5653 12.814C40.5053 12.758 40.4573 12.69 40.4213 12.61C40.3893 12.53 40.3733 12.446 40.3733 12.358V7.69L38.3933 10.042C38.3373 10.098 38.2713 10.146 38.1953 10.186C38.1193 10.222 38.0413 10.24 37.9613 10.24C37.8053 10.24 37.6673 10.176 37.5473 10.048H37.5413V10.042L35.5553 7.696ZM46.6764 5.266C47.2164 5.266 47.7244 5.368 48.2004 5.572C48.6764 5.776 49.0904 6.056 49.4424 6.412C49.7984 6.764 50.0784 7.178 50.2824 7.654C50.4864 8.126 50.5884 8.632 50.5884 9.172C50.5884 9.532 50.5404 9.878 50.4444 10.21C50.3524 10.542 50.2224 10.852 50.0544 11.14C49.8864 11.428 49.6824 11.692 49.4424 11.932C49.2024 12.168 48.9384 12.372 48.6504 12.544C48.3624 12.712 48.0504 12.842 47.7144 12.934C47.3824 13.026 47.0364 13.072 46.6764 13.072C46.1364 13.072 45.6284 12.97 45.1524 12.766C44.6804 12.562 44.2684 12.284 43.9164 11.932C43.5684 11.576 43.2924 11.162 43.0884 10.69C42.8884 10.218 42.7884 9.712 42.7884 9.172C42.7884 8.812 42.8344 8.466 42.9264 8.134C43.0184 7.802 43.1484 7.492 43.3164 7.204C43.4844 6.912 43.6864 6.648 43.9224 6.412C44.1584 6.172 44.4204 5.968 44.7084 5.8C44.9964 5.632 45.3064 5.502 45.6384 5.41C45.9704 5.314 46.3164 5.266 46.6764 5.266ZM46.6824 6.568C46.3224 6.568 45.9844 6.636 45.6684 6.772C45.3564 6.908 45.0824 7.094 44.8464 7.33C44.6144 7.566 44.4304 7.842 44.2944 8.158C44.1584 8.474 44.0904 8.812 44.0904 9.172C44.0904 9.536 44.1584 9.876 44.2944 10.192C44.4304 10.508 44.6144 10.784 44.8464 11.02C45.0824 11.252 45.3564 11.436 45.6684 11.572C45.9844 11.704 46.3224 11.77 46.6824 11.77C47.0424 11.77 47.3804 11.704 47.6964 11.572C48.0164 11.436 48.2924 11.252 48.5244 11.02C48.7604 10.784 48.9464 10.508 49.0824 10.192C49.2184 9.876 49.2864 9.536 49.2864 9.172C49.2864 8.812 49.2184 8.474 49.0824 8.158C48.9464 7.842 48.7604 7.566 48.5244 7.33C48.2924 7.094 48.0164 6.908 47.6964 6.772C47.3804 6.636 47.0424 6.568 46.6824 6.568ZM54.3722 8.23L56.7302 5.548C56.7942 5.476 56.8662 5.422 56.9462 5.386C57.0302 5.346 57.1142 5.326 57.1982 5.326C57.3462 5.326 57.4802 5.38 57.6002 5.488C57.6682 5.548 57.7202 5.618 57.7562 5.698C57.7922 5.778 57.8122 5.86 57.8162 5.944C57.8242 6.028 57.8142 6.112 57.7862 6.196C57.7622 6.276 57.7202 6.35 57.6602 6.418L55.2182 9.19L57.6302 11.92C57.6942 11.988 57.7402 12.064 57.7682 12.148C57.8002 12.228 57.8162 12.31 57.8162 12.394C57.8162 12.474 57.8002 12.552 57.7682 12.628C57.7362 12.704 57.6862 12.772 57.6182 12.832C57.5542 12.888 57.4842 12.93 57.4082 12.958C57.3362 12.986 57.2602 13 57.1802 13C57.0922 13 57.0062 12.982 56.9222 12.946C56.8382 12.91 56.7642 12.856 56.7002 12.784L54.3722 10.15L52.0502 12.784C51.9822 12.856 51.9062 12.91 51.8222 12.946C51.7422 12.982 51.6562 13 51.5642 13C51.4882 13 51.4122 12.986 51.3362 12.958C51.2642 12.93 51.1962 12.888 51.1322 12.832C51.0682 12.772 51.0182 12.704 50.9822 12.628C50.9502 12.552 50.9342 12.474 50.9342 12.394C50.9342 12.31 50.9482 12.228 50.9762 12.148C51.0082 12.064 51.0562 11.988 51.1202 11.92L53.5262 9.19L51.0722 6.412C51.0122 6.344 50.9682 6.27 50.9402 6.19C50.9162 6.106 50.9062 6.022 50.9102 5.938C50.9182 5.854 50.9402 5.774 50.9762 5.698C51.0162 5.618 51.0682 5.548 51.1322 5.488C51.2522 5.38 51.3862 5.326 51.5342 5.326C51.7142 5.326 51.8722 5.4 52.0082 5.548L54.3722 8.23Z" fill="white"/>
<defs>
<linearGradient id="paint0_linear" x1="12.1368" y1="-4.35525" x2="-0.524226" y2="8.3037" gradientUnits="userSpaceOnUse">
<stop stop-color="#007BFF"/>
<stop offset="0.59" stop-color="#007BFF"/>
<stop offset="1" stop-color="#007BFF"/>
</linearGradient>
<linearGradient id="paint1_linear" x1="10.971" y1="5.1982" x2="7.39784" y2="3.34245" gradientUnits="userSpaceOnUse">
<stop stop-color="#007BFF"/>
<stop offset="1" stop-color="white"/>
</linearGradient>
<linearGradient id="paint2_linear" x1="1469.68" y1="304.456" x2="409.027" y2="1214.32" gradientUnits="userSpaceOnUse">
<stop stop-color="#007BFF"/>
<stop offset="0.0001" stop-color="#377DFF"/>
<stop offset="0.5899" stop-color="#2C8CF3"/>
<stop offset="0.59" stop-color="#007BFF"/>
<stop offset="1" stop-color="#7FB0FF"/>
</linearGradient>
<linearGradient id="paint3_linear" x1="413.453" y1="1311.31" x2="940.82" y2="667.2" gradientUnits="userSpaceOnUse">
<stop stop-color="#377DFF"/>
<stop offset="1" stop-color="white"/>
</linearGradient>
<clipPath id="clip0">
<rect width="24.3785" height="17.7733" fill="white"/>
</clipPath>
</defs>
</svg>
